<?xml version="1.0" standalone="no"?>
<!DOCTYPE svg PUBLIC "-//W3C//DTD SVG 20010904//EN"
 "http://www.w3.org/TR/2001/REC-SVG-20010904/DTD/svg10.dtd">
<svg version="1.0" xmlns="http://www.w3.org/2000/svg"
 width="1022.000000pt" height="1022.000000pt" viewBox="0 0 1022.000000 1022.000000"
 preserveAspectRatio="xMidYMid meet">
<metadata>
Created by potrace 1.14, written by Peter Selinger 2001-2017
</metadata>
<g transform="translate(0.000000,1022.000000) scale(0.100000,-0.100000)"
fill="#000000" stroke="none">
<path d="M3400 10201 c-8 -6 -17 -8 -21 -5 -4 2 -10 0 -14 -6 -3 -5 -15 -10
-26 -10 -10 0 -19 -3 -19 -8 0 -4 -13 -13 -29 -20 -40 -18 -159 -134 -212
-207 -24 -33 -46 -62 -49 -65 -3 -3 -11 -15 -17 -27 -7 -13 -19 -33 -25 -45
-7 -13 -16 -25 -19 -28 -6 -6 -86 -170 -117 -240 -23 -53 -72 -188 -77 -213
-2 -9 -7 -21 -10 -27 -9 -15 -56 -194 -69 -263 -14 -76 -27 -144 -30 -163 -31
-156 -36 -493 -11 -654 3 -19 8 -60 10 -90 3 -30 7 -68 10 -85 11 -76 16 -113
20 -145 3 -19 7 -51 10 -70 17 -100 57 -349 61 -377 2 -18 8 -52 13 -75 6 -24
13 -64 16 -89 3 -25 12 -75 20 -110 7 -35 11 -67 8 -71 -2 -5 0 -8 5 -8 12 0
3 -40 -12 -56 -6 -6 -111 -114 -232 -240 -122 -126 -242 -250 -265 -275 -79
-84 -204 -221 -224 -247 -11 -13 -31 -36 -45 -51 -22 -22 -78 -90 -130 -154
-8 -11 -20 -24 -25 -31 -61 -68 -301 -418 -327 -478 -7 -15 -16 -28 -20 -28
-5 0 -8 -9 -8 -19 0 -11 -5 -23 -10 -26 -15 -9 -101 -193 -143 -305 -35 -94
-84 -267 -92 -325 -3 -16 -8 -43 -11 -60 -11 -45 -13 -77 -19 -223 -3 -74 -7
-137 -10 -141 -2 -5 -2 -11 1 -14 4 -3 8 -45 10 -93 3 -80 6 -112 19 -185 3
-14 7 -41 9 -60 23 -164 99 -420 175 -582 17 -38 31 -70 31 -72 0 -15 189
-327 210 -345 3 -3 24 -27 45 -54 77 -95 221 -232 326 -309 54 -41 79 -57 88
-57 5 0 11 -3 13 -7 9 -21 209 -119 329 -161 83 -29 245 -73 284 -77 11 -1 41
-5 66 -9 110 -18 405 -24 524 -11 33 4 76 8 95 10 19 2 35 4 35 5 0 1 16 3 35
6 19 2 66 11 104 19 38 9 70 14 73 12 4 -5 11 -37 18 -82 3 -16 7 -41 10 -55
3 -14 7 -36 10 -50 2 -14 11 -68 21 -120 9 -52 18 -106 20 -120 3 -14 6 -34 8
-45 2 -11 7 -42 11 -70 4 -27 9 -57 10 -65 2 -8 8 -51 15 -95 7 -44 14 -89 17
-100 2 -11 6 -36 8 -55 2 -19 6 -48 9 -65 8 -47 34 -271 42 -360 6 -65 5 -258
-1 -290 -27 -145 -44 -198 -92 -290 -58 -109 -139 -197 -249 -271 -68 -45
-137 -82 -166 -90 -5 -1 -10 -3 -13 -4 -3 -1 -8 -3 -12 -4 -5 -2 -28 -8 -53
-16 -188 -56 -426 -39 -545 40 -16 11 -39 25 -49 32 -35 23 -117 128 -100 128
4 0 2 6 -4 13 -5 6 -13 27 -17 45 -5 27 -4 32 12 33 82 4 210 52 268 101 35
29 105 102 105 108 0 4 9 17 20 30 11 12 17 27 14 31 -3 5 -1 9 4 9 9 0 23 37
20 50 -1 3 4 14 10 26 11 21 23 90 22 134 0 14 0 36 -1 50 0 60 -35 158 -83
230 -72 109 -215 202 -336 218 -187 24 -330 -21 -454 -144 -33 -33 -68 -74
-76 -90 -8 -16 -18 -31 -21 -34 -6 -6 -49 -112 -53 -131 -1 -8 -8 -41 -15 -74
-15 -65 -20 -267 -9 -330 9 -49 71 -176 112 -230 36 -47 131 -142 166 -167 14
-10 44 -31 67 -48 24 -16 47 -30 52 -30 5 0 11 -4 13 -8 6 -16 231 -116 283
-126 11 -2 32 -9 46 -14 25 -10 101 -26 184 -39 54 -9 287 -9 355 -1 64 8 204
44 240 63 113 58 137 70 148 82 7 7 17 13 22 13 15 0 164 152 197 201 82 121
151 309 168 458 15 132 18 191 13 244 -3 21 -1 40 4 43 5 3 6 10 2 15 -6 10
-9 32 -18 139 -4 36 -8 79 -11 95 -3 17 -7 47 -10 68 -3 20 -7 54 -10 75 -3
20 -8 53 -11 72 -4 19 -8 44 -9 55 -3 20 -11 66 -19 115 -3 14 -7 41 -10 60
-3 19 -8 46 -11 60 -3 14 -7 39 -10 55 -2 17 -9 55 -15 85 -6 30 -13 69 -15
85 -3 17 -10 53 -15 80 -5 28 -12 61 -14 75 -3 14 -14 71 -25 128 -12 57 -21
110 -21 117 0 7 16 19 35 25 80 26 261 125 337 184 14 12 40 32 58 45 114 88
270 280 343 427 43 83 84 180 93 214 2 8 12 48 23 87 20 74 27 109 41 218 8
64 5 353 -4 395 -3 13 -8 42 -11 63 -4 22 -10 50 -15 63 -5 13 -8 24 -5 24 15
0 -81 262 -128 350 -198 368 -501 590 -882 646 -107 16 -351 4 -421 -20 -19
-7 -33 9 -37 44 -2 19 -7 42 -10 50 -3 8 -8 31 -11 50 -3 19 -16 87 -30 150
-13 63 -27 129 -30 145 -3 17 -10 50 -16 75 -6 25 -12 59 -15 75 -3 17 -7 39
-9 50 -3 11 -16 79 -31 150 -14 72 -28 141 -31 155 -21 100 -23 94 62 181 44
45 85 88 92 95 8 8 41 47 74 87 33 39 67 81 76 92 91 109 232 329 312 485 88
173 188 455 226 635 2 11 6 31 9 45 13 59 26 127 31 160 3 19 7 46 9 60 41
233 52 796 20 1025 -3 17 -7 53 -10 80 -9 77 -15 113 -32 195 -8 41 -17 86
-19 100 -10 56 -71 261 -94 315 -46 109 -81 182 -119 244 -45 76 -162 201
-187 201 -8 0 -14 4 -14 9 0 22 -150 40 -180 22z m277 -867 c87 -37 149 -141
177 -301 13 -70 14 -330 2 -383 -3 -14 -8 -41 -10 -60 -12 -78 -61 -239 -102
-330 -40 -87 -70 -146 -79 -152 -5 -4 -7 -8 -3 -8 15 0 -214 -350 -234 -358
-4 -2 -8 -10 -8 -17 0 -7 -3 -15 -8 -17 -4 -1 -36 -39 -72 -83 -141 -175 -374
-434 -383 -425 -3 3 -8 30 -12 60 -4 30 -8 57 -10 60 -2 3 -6 28 -9 55 -4 28
-8 61 -11 75 -2 14 -7 48 -10 75 -4 28 -8 64 -10 80 -28 222 -23 438 16 670 5
33 12 77 14 99 3 21 9 52 14 70 5 17 22 78 37 136 15 58 31 112 35 120 4 8 20
49 35 90 16 41 46 106 66 144 21 38 38 70 38 72 0 2 19 31 41 64 70 101 225
251 242 233 4 -3 7 -2 7 4 0 11 18 19 90 37 51 14 97 10 147 -10z m-643 -3308
c2 -17 14 -80 26 -141 12 -60 23 -119 25 -130 2 -11 13 -67 25 -125 12 -58 23
-116 25 -130 7 -41 15 -84 22 -105 3 -11 8 -30 10 -42 4 -26 9 -56 17 -95 17
-83 19 -78 -42 -104 -115 -50 -312 -167 -312 -186 0 -4 -4 -8 -10 -8 -5 0 -25
-15 -45 -34 -19 -19 -38 -36 -43 -38 -15 -7 -141 -156 -179 -213 -136 -204
-195 -385 -197 -605 -1 -130 9 -195 48 -315 52 -162 191 -352 351 -481 116
-94 384 -248 401 -231 4 3 -36 48 -87 99 -168 166 -288 369 -324 548 -15 71
-14 254 1 315 8 33 16 67 18 76 10 42 62 149 98 201 44 66 122 149 185 196 49
38 183 106 236 120 33 9 38 9 36 -6 -1 -9 1 -24 4 -32 3 -8 8 -31 11 -50 2
-19 10 -60 16 -90 6 -30 13 -66 16 -80 2 -14 9 -45 14 -70 6 -25 12 -54 13
-65 2 -11 7 -31 10 -45 4 -14 8 -38 11 -55 2 -16 18 -98 35 -181 16 -82 33
-166 36 -185 3 -19 8 -41 10 -49 2 -8 7 -31 10 -50 3 -19 8 -42 10 -50 2 -8 7
-28 9 -45 9 -50 37 -196 52 -270 7 -38 16 -82 19 -97 16 -86 19 -104 45 -232
7 -32 13 -68 15 -80 1 -12 5 -34 8 -51 4 -16 9 -42 12 -57 3 -16 7 -38 9 -50
15 -75 17 -71 -64 -94 -41 -12 -93 -25 -115 -28 -22 -4 -51 -8 -65 -11 -49 -8
-186 -18 -255 -18 -77 0 -235 12 -246 19 -4 2 -24 6 -45 10 -66 10 -185 43
-274 75 -93 34 -320 148 -320 161 0 4 -5 8 -11 8 -15 0 -131 91 -203 159 -65
63 -176 194 -176 209 0 6 -3 12 -7 14 -14 6 -111 177 -118 208 -1 3 -8 21 -16
40 -19 42 -55 153 -64 195 -4 17 -11 50 -15 75 -5 25 -12 56 -15 70 -10 49
-17 157 -18 295 -3 317 46 541 175 805 33 69 63 127 67 130 3 3 32 43 63 90
114 171 284 356 528 574 112 100 177 157 290 256 47 41 102 90 123 109 20 19
52 47 69 63 l33 29 12 -47 c6 -26 14 -61 17 -78z m556 -1400 c110 -8 185 -29
285 -79 253 -125 435 -381 506 -712 9 -44 22 -189 20 -222 -1 -7 -1 -19 -2
-25 -1 -7 0 -26 1 -43 2 -28 -4 -81 -15 -130 -16 -78 -34 -147 -45 -170 -4
-11 -20 -47 -35 -80 -24 -55 -68 -130 -105 -180 -43 -59 -196 -196 -263 -236
l-76 -47 -6 27 c-3 14 -8 37 -11 51 -3 14 -7 35 -9 47 -2 11 -6 31 -10 43 -4
12 -9 32 -10 43 -9 57 -18 101 -41 212 -13 66 -29 138 -34 160 -5 22 -11 54
-14 70 -7 35 -12 62 -26 130 -6 28 -12 59 -14 70 -3 11 -9 40 -15 65 -5 25
-13 61 -16 80 -3 19 -15 73 -25 120 -10 47 -21 99 -24 115 -3 17 -15 73 -26
125 -12 52 -23 104 -24 115 -2 11 -11 56 -21 100 -10 44 -19 91 -21 105 -1 14
-3 27 -5 30 -1 3 -3 10 -4 15 0 6 -6 33 -13 60 -6 28 -14 62 -16 78 -3 15 -7
36 -11 46 -6 20 13 30 45 24 8 -1 44 -4 80 -7z"/>
<path d="M6908 8185 c-2 -3 -63 -7 -134 -10 -118 -4 -186 -9 -254 -20 -14 -2
-45 -7 -70 -10 -25 -3 -94 -18 -155 -32 -60 -14 -111 -25 -112 -25 -2 1 -23
-7 -48 -18 -25 -11 -45 -17 -45 -15 0 4 -54 -18 -140 -58 -25 -12 -47 -21 -50
-22 -3 0 -21 -10 -41 -23 -20 -12 -40 -22 -44 -22 -5 0 -23 -11 -41 -25 -18
-14 -36 -25 -39 -25 -4 0 -50 -34 -104 -75 -95 -72 -234 -204 -268 -255 -9
-14 -23 -31 -29 -37 -26 -27 -106 -155 -145 -232 -38 -78 -114 -276 -123 -323
-2 -13 -9 -41 -14 -63 -14 -50 -22 -98 -37 -225 -13 -104 -6 -397 11 -495 3
-16 7 -46 9 -65 2 -19 8 -55 15 -80 6 -25 11 -52 12 -60 0 -17 55 -202 71
-240 6 -14 11 -27 12 -30 17 -50 119 -254 135 -270 3 -3 19 -25 35 -50 17 -25
35 -50 40 -56 6 -6 29 -34 52 -61 96 -114 280 -268 400 -335 47 -27 218 -112
258 -129 64 -27 95 -37 95 -32 0 3 6 1 13 -5 9 -8 114 -43 172 -58 11 -3 316
-95 385 -117 25 -7 47 -14 50 -15 3 0 12 -3 20 -6 8 -3 71 -21 140 -41 69 -20
132 -39 140 -42 8 -3 20 -7 25 -8 34 -8 191 -62 250 -85 82 -33 109 -42 114
-40 2 1 7 -2 10 -7 3 -4 46 -28 95 -52 321 -160 511 -400 562 -711 3 -19 9
-53 13 -75 25 -150 -17 -443 -84 -588 -137 -299 -455 -501 -870 -552 -27 -3
-61 -8 -75 -10 -40 -7 -311 -7 -365 0 -27 4 -66 8 -85 10 -124 13 -347 76
-464 131 -225 105 -415 293 -525 519 -58 117 -111 272 -125 360 -2 11 -9 47
-16 80 -7 33 -14 71 -16 85 -1 14 -6 51 -9 83 -4 31 -8 65 -10 75 -2 9 -4 29
-4 45 -1 15 -6 27 -13 27 -10 0 -68 -20 -238 -81 -30 -11 -77 -28 -105 -38
-27 -10 -81 -30 -120 -44 -38 -14 -77 -27 -85 -29 -23 -5 -30 -20 -24 -53 22
-139 65 -313 90 -372 8 -17 14 -34 14 -38 0 -19 77 -186 112 -243 21 -34 38
-66 38 -71 0 -5 3 -11 8 -13 4 -1 27 -30 52 -63 48 -64 213 -235 228 -235 5 0
17 -9 28 -21 18 -20 205 -149 216 -149 3 0 32 -15 65 -33 95 -54 319 -137 413
-154 8 -1 42 -9 75 -17 52 -13 145 -30 275 -50 174 -27 696 -28 851 -1 13 2
42 6 64 9 22 2 47 7 55 10 8 2 33 7 55 10 125 17 434 117 515 167 8 5 25 13
37 19 12 5 39 20 60 33 21 13 40 24 43 24 5 -1 98 64 165 115 120 91 240 223
327 358 110 172 204 405 233 580 3 19 8 42 10 50 19 70 27 475 12 591 -21 167
-66 355 -108 448 -10 24 -19 47 -19 51 0 18 -96 181 -145 246 -61 82 -167 191
-240 249 -27 22 -52 43 -55 46 -3 3 -45 32 -94 64 -103 67 -284 159 -401 203
-108 41 -119 45 -125 47 -3 1 -39 12 -80 24 -41 13 -79 24 -85 26 -5 1 -17 5
-25 8 -15 6 -130 40 -140 42 -3 0 -11 4 -17 8 -7 5 -13 6 -13 3 0 -3 -17 2
-37 11 -21 8 -39 14 -41 13 -3 -2 -120 33 -205 61 -31 10 -61 19 -66 19 -6 0
-22 5 -38 12 -15 6 -31 11 -35 10 -13 -3 -312 98 -395 134 -93 40 -180 85
-225 116 -14 10 -30 18 -35 18 -6 0 -18 9 -28 20 -10 11 -22 20 -27 20 -20 0
-188 159 -225 213 -15 23 -34 48 -40 55 -7 7 -13 17 -13 22 0 5 -6 15 -13 22
-15 16 -78 145 -92 188 -48 153 -40 124 -58 239 -29 185 -10 425 48 611 16 50
79 180 88 180 4 0 7 7 7 15 0 35 212 245 248 245 6 0 12 3 14 8 3 8 118 65
163 81 182 63 393 78 616 45 202 -30 393 -135 520 -285 105 -124 187 -293 224
-464 34 -152 37 -186 38 -400 1 -152 -8 -339 -18 -354 -2 -4 -6 -33 -9 -66 -4
-33 -9 -67 -12 -77 -9 -29 2 -29 121 -5 11 3 40 8 65 12 25 4 54 9 65 11 11 2
34 7 50 9 17 3 37 8 45 10 8 2 33 7 55 10 23 3 52 8 65 10 14 3 39 7 55 10 17
3 41 8 55 10 14 3 36 8 50 10 14 3 40 8 59 11 18 3 43 8 55 10 11 2 37 7 56
10 19 3 42 7 50 9 8 2 30 7 48 10 116 19 113 17 119 72 2 21 7 63 12 94 14
104 1 396 -19 449 -1 3 -2 8 -2 11 1 4 -3 22 -9 40 -6 19 -12 43 -14 54 -22
121 -136 349 -243 485 -68 85 -223 231 -284 268 -16 9 -28 20 -28 24 0 4 -4 8
-9 8 -5 0 -37 18 -70 40 -33 22 -63 40 -66 40 -4 0 -20 9 -36 21 -16 11 -29
18 -29 14 0 -3 -10 1 -22 9 -34 22 -192 84 -273 107 -106 31 -265 63 -365 74
-25 3 -61 8 -80 11 -19 3 -97 7 -173 9 -75 2 -141 6 -146 9 -4 3 -10 3 -13 1z"/>
</g>
</svg>
