<svg width="1800" height="614" viewBox="0 0 1800 614" fill="none" xmlns="http://www.w3.org/2000/svg">
<path d="M320.272 468.48C340.752 468.48 357.648 463.701 370.96 454.144C384.613 444.245 391.44 428.885 391.44 408.064C391.44 392.704 386.832 379.904 377.616 369.664C368.741 359.424 352.699 350.891 329.488 344.064L281.872 329.728C257.979 322.56 239.547 310.272 226.576 292.864C213.947 275.115 207.632 253.099 207.632 226.816C207.632 209.408 211.557 193.195 219.408 178.176C227.6 163.157 239.888 151.04 256.272 141.824C272.997 132.608 293.989 128 319.248 128C346.896 128 369.253 133.12 386.32 143.36C403.387 153.259 415.333 166.229 422.16 182.272C428.987 198.315 430.693 215.552 427.28 233.984L368.4 244.736C373.861 212.992 371.472 188.587 361.232 171.52C351.333 154.453 335.12 145.92 312.592 145.92C295.184 145.92 281.189 151.04 270.608 161.28C260.368 171.52 255.248 186.197 255.248 205.312C255.248 221.013 259.685 234.837 268.56 246.784C277.776 258.731 292.795 267.947 313.616 274.432L361.232 288.768C387.173 296.277 406.629 307.712 419.6 323.072C432.571 338.091 439.056 359.083 439.056 386.048C439.056 405.163 434.619 422.4 425.744 437.76C417.211 452.779 404.069 464.725 386.32 473.6C368.912 482.133 347.067 486.4 320.784 486.4C301.669 486.4 283.579 483.669 266.512 478.208C249.445 472.405 235.109 463.019 223.504 450.048C212.24 437.077 205.072 419.499 202 397.312L236.304 385.024C238.011 406.869 242.789 423.936 250.64 436.224C258.832 448.171 268.901 456.533 280.848 461.312C293.136 466.091 306.277 468.48 320.272 468.48Z" fill="#9361FF"/>
<path d="M567.836 466.944V481.28H469.02V466.944L497.18 463.36C500.935 462.677 503.665 461.995 505.372 461.312C507.079 460.288 508.615 458.069 509.98 454.656C511.345 451.243 513.223 445.781 515.612 438.272L613.404 133.12H657.436L755.74 438.272C758.129 445.781 760.007 451.243 761.372 454.656C762.737 458.069 764.273 460.288 765.98 461.312C768.028 461.995 770.759 462.677 774.172 463.36L802.332 466.944V481.28H661.02V466.944L689.18 463.36C694.641 462.677 697.543 461.312 697.884 459.264C698.567 456.875 697.031 449.877 693.276 438.272L673.82 374.784H555.548L535.58 438.272C532.167 449.877 530.631 456.875 530.972 459.264C531.313 461.312 534.215 462.677 539.676 463.36L567.836 466.944ZM561.692 356.864H668.188L615.452 186.88L561.692 356.864Z" fill="#9361FF"/>
<path d="M1049.3 176.128L952.532 481.28H908.5L811.22 176.128C808.831 168.277 806.953 162.816 805.588 159.744C804.223 156.331 802.687 154.112 800.98 153.088C799.273 152.064 796.543 151.381 792.788 151.04L764.628 147.456V133.12H906.964V147.456L878.804 151.04C873.343 151.723 870.441 153.259 870.1 155.648C869.759 157.696 871.295 164.523 874.708 176.128L952.532 420.352L1029.33 176.128C1033.09 164.523 1034.62 157.696 1033.94 155.648C1033.6 153.259 1030.7 151.723 1025.24 151.04L997.076 147.456V133.12H1095.38V147.456L1067.22 151.04C1063.81 151.381 1061.25 152.064 1059.54 153.088C1057.83 154.112 1056.3 156.331 1054.93 159.744C1053.57 162.816 1051.69 168.277 1049.3 176.128Z" fill="#9361FF"/>
<path d="M1118.85 147.456V133.12H1259.14V147.456L1230.98 151.04C1225.51 151.723 1222.27 153.259 1221.25 155.648C1220.22 157.696 1219.71 164.523 1219.71 176.128V438.272C1219.71 449.877 1220.22 456.875 1221.25 459.264C1222.27 461.312 1225.51 462.677 1230.98 463.36L1259.14 466.944V481.28H1118.85V466.944L1147.01 463.36C1152.47 462.677 1155.71 461.312 1156.74 459.264C1157.76 456.875 1158.27 449.877 1158.27 438.272V176.128C1158.27 164.523 1157.76 157.696 1156.74 155.648C1155.71 153.259 1152.47 151.723 1147.01 151.04L1118.85 147.456Z" fill="#9361FF"/>
<path d="M1597.75 290.816V323.072C1597.75 375.637 1585.97 416.085 1562.42 444.416C1539.21 472.405 1504.73 486.4 1459 486.4C1413.26 486.4 1378.61 472.405 1355.06 444.416C1331.85 416.085 1320.24 375.637 1320.24 323.072V290.816C1320.24 238.251 1331.85 197.973 1355.06 169.984C1378.61 141.995 1413.26 128 1459 128C1504.73 128 1539.21 141.995 1562.42 169.984C1585.97 197.973 1597.75 238.251 1597.75 290.816ZM1532.21 265.216C1532.21 235.179 1529.65 211.627 1524.53 194.56C1519.41 177.152 1511.39 164.693 1500.47 157.184C1489.89 149.675 1476.06 145.92 1459 145.92C1442.27 145.92 1428.45 149.675 1417.52 157.184C1406.6 164.693 1398.58 177.152 1393.46 194.56C1388.34 211.627 1385.78 235.179 1385.78 265.216V348.672C1385.78 378.368 1388.34 401.92 1393.46 419.328C1398.58 436.736 1406.6 449.365 1417.52 457.216C1428.45 464.725 1442.27 468.48 1459 468.48C1476.06 468.48 1489.89 464.725 1500.47 457.216C1511.39 449.365 1519.41 436.736 1524.53 419.328C1529.65 401.92 1532.21 378.368 1532.21 348.672V265.216Z" fill="#9361FF"/>
<path fill-rule="evenodd" clip-rule="evenodd" d="M0 16H1800V0H0V16ZM1630 165.5H1800V149.5H1630V165.5ZM170 165.5V149.5H0V165.5H170ZM170 299V315H0V299H170ZM1630 315V299H1800V315H1630ZM170 448.5H0V464.5H170V448.5ZM1630 464.5V448.5H1800V464.5H1630ZM1800 614H0V598H1800V614Z" fill="#9361FF"/>
</svg>
